<mxfile host="app.diagrams.net" agent="Mozilla/5.0 (Windows NT 10.0; Win64; x64) AppleWebKit/537.36 (KHTML, like Gecko) Chrome/131.0.0.0 Safari/537.36" version="25.0.3">
  <diagram name="Page-1" id="xe9Eyi5xWzuj56qyQbED">
    <mxGraphModel dx="2570" dy="1049" grid="1" gridSize="10" guides="1" tooltips="1" connect="1" arrows="1" fold="1" page="1" pageScale="1" pageWidth="850" pageHeight="1100" math="0" shadow="0">
      <root>
        <mxCell id="0" />
        <mxCell id="1" parent="0" />
        <mxCell id="luljxV-kUhQ4hvASBTv3-33" style="edgeStyle=orthogonalEdgeStyle;rounded=0;orthogonalLoop=1;jettySize=auto;html=1;entryX=0.5;entryY=0;entryDx=0;entryDy=0;" edge="1" parent="1" source="luljxV-kUhQ4hvASBTv3-30" target="luljxV-kUhQ4hvASBTv3-32">
          <mxGeometry relative="1" as="geometry" />
        </mxCell>
        <mxCell id="luljxV-kUhQ4hvASBTv3-30" value="" style="rounded=0;whiteSpace=wrap;html=1;fillColor=#dae8fc;strokeColor=#6c8ebf;" vertex="1" parent="1">
          <mxGeometry x="280" y="370" width="400" height="190" as="geometry" />
        </mxCell>
        <mxCell id="luljxV-kUhQ4hvASBTv3-31" value="User Interface&lt;div&gt;dev-ui-service&lt;/div&gt;" style="text;html=1;align=left;verticalAlign=middle;resizable=0;points=[];autosize=1;strokeColor=none;fillColor=none;fontSize=14;fontStyle=1" vertex="1" parent="1">
          <mxGeometry x="280" y="370" width="110" height="50" as="geometry" />
        </mxCell>
        <mxCell id="luljxV-kUhQ4hvASBTv3-40" style="edgeStyle=orthogonalEdgeStyle;rounded=0;orthogonalLoop=1;jettySize=auto;html=1;entryX=1;entryY=0.5;entryDx=0;entryDy=0;fillColor=#d80073;strokeColor=#A50040;strokeWidth=3;" edge="1" parent="1" source="luljxV-kUhQ4hvASBTv3-32" target="luljxV-kUhQ4hvASBTv3-38">
          <mxGeometry relative="1" as="geometry" />
        </mxCell>
        <mxCell id="luljxV-kUhQ4hvASBTv3-52" style="edgeStyle=orthogonalEdgeStyle;rounded=0;orthogonalLoop=1;jettySize=auto;html=1;entryX=0;entryY=0.5;entryDx=0;entryDy=0;strokeWidth=3;fillColor=#d80073;strokeColor=#A50040;" edge="1" parent="1" source="luljxV-kUhQ4hvASBTv3-32" target="luljxV-kUhQ4hvASBTv3-46">
          <mxGeometry relative="1" as="geometry" />
        </mxCell>
        <mxCell id="luljxV-kUhQ4hvASBTv3-61" style="edgeStyle=orthogonalEdgeStyle;rounded=0;orthogonalLoop=1;jettySize=auto;html=1;entryX=0.5;entryY=0;entryDx=0;entryDy=0;fillColor=#d80073;strokeColor=#A50040;strokeWidth=3;" edge="1" parent="1" source="luljxV-kUhQ4hvASBTv3-32" target="luljxV-kUhQ4hvASBTv3-59">
          <mxGeometry relative="1" as="geometry" />
        </mxCell>
        <mxCell id="luljxV-kUhQ4hvASBTv3-32" value="API Gateway" style="ellipse;whiteSpace=wrap;html=1;aspect=fixed;fontSize=14;fontStyle=1" vertex="1" parent="1">
          <mxGeometry x="420" y="670" width="120" height="120" as="geometry" />
        </mxCell>
        <mxCell id="luljxV-kUhQ4hvASBTv3-34" value="Sign-in / Sign-up&lt;div&gt;(auth srvc)&lt;/div&gt;" style="whiteSpace=wrap;html=1;fillColor=#ffe6cc;strokeColor=#d79b00;" vertex="1" parent="1">
          <mxGeometry x="310" y="430" width="100" height="50" as="geometry" />
        </mxCell>
        <mxCell id="luljxV-kUhQ4hvASBTv3-35" value="Restaurant Search (Restaurant srvc)" style="whiteSpace=wrap;html=1;fillColor=#ffe6cc;strokeColor=#d79b00;" vertex="1" parent="1">
          <mxGeometry x="430" y="430" width="100" height="50" as="geometry" />
        </mxCell>
        <mxCell id="luljxV-kUhQ4hvASBTv3-36" value="Placing Order&lt;div&gt;(Orders srvc)&lt;/div&gt;" style="whiteSpace=wrap;html=1;fillColor=#ffe6cc;strokeColor=#d79b00;" vertex="1" parent="1">
          <mxGeometry x="550" y="430" width="100" height="50" as="geometry" />
        </mxCell>
        <mxCell id="luljxV-kUhQ4hvASBTv3-37" value="Making Payment&lt;div&gt;(payment srvc)&lt;/div&gt;" style="whiteSpace=wrap;html=1;fillColor=#ffe6cc;strokeColor=#d79b00;" vertex="1" parent="1">
          <mxGeometry x="430" y="490" width="100" height="50" as="geometry" />
        </mxCell>
        <mxCell id="luljxV-kUhQ4hvASBTv3-45" style="edgeStyle=orthogonalEdgeStyle;rounded=0;orthogonalLoop=1;jettySize=auto;html=1;startArrow=classic;startFill=1;entryX=1;entryY=0.5;entryDx=0;entryDy=0;fillColor=#60a917;strokeColor=#2D7600;strokeWidth=3;" edge="1" parent="1" source="luljxV-kUhQ4hvASBTv3-38" target="luljxV-kUhQ4hvASBTv3-42">
          <mxGeometry relative="1" as="geometry">
            <mxPoint x="30" y="730" as="targetPoint" />
          </mxGeometry>
        </mxCell>
        <mxCell id="luljxV-kUhQ4hvASBTv3-73" style="edgeStyle=orthogonalEdgeStyle;rounded=0;orthogonalLoop=1;jettySize=auto;html=1;entryX=0.75;entryY=0;entryDx=0;entryDy=0;strokeColor=#0000FF;strokeWidth=3;" edge="1" parent="1" source="luljxV-kUhQ4hvASBTv3-38" target="luljxV-kUhQ4hvASBTv3-54">
          <mxGeometry relative="1" as="geometry">
            <Array as="points">
              <mxPoint x="240" y="880" />
              <mxPoint x="180" y="880" />
            </Array>
          </mxGeometry>
        </mxCell>
        <mxCell id="luljxV-kUhQ4hvASBTv3-38" value="" style="rounded=0;whiteSpace=wrap;html=1;fillColor=#dae8fc;strokeColor=#6c8ebf;" vertex="1" parent="1">
          <mxGeometry x="120" y="670" width="240" height="120" as="geometry" />
        </mxCell>
        <mxCell id="luljxV-kUhQ4hvASBTv3-39" value="Authentication Service&lt;div&gt;dev-auth-service&lt;/div&gt;" style="text;html=1;align=left;verticalAlign=middle;resizable=0;points=[];autosize=1;strokeColor=none;fillColor=none;fontSize=14;fontStyle=1" vertex="1" parent="1">
          <mxGeometry x="140" y="670" width="160" height="50" as="geometry" />
        </mxCell>
        <mxCell id="luljxV-kUhQ4hvASBTv3-43" value="" style="group" vertex="1" connectable="0" parent="1">
          <mxGeometry x="-240" y="660" width="240" height="140" as="geometry" />
        </mxCell>
        <mxCell id="luljxV-kUhQ4hvASBTv3-42" value="" style="rounded=0;whiteSpace=wrap;html=1;fillColor=#dae8fc;strokeColor=#6c8ebf;" vertex="1" parent="luljxV-kUhQ4hvASBTv3-43">
          <mxGeometry width="240" height="140" as="geometry" />
        </mxCell>
        <mxCell id="luljxV-kUhQ4hvASBTv3-41" value="" style="image;html=1;image=img/lib/clip_art/computers/Database_128x128.png" vertex="1" parent="luljxV-kUhQ4hvASBTv3-43">
          <mxGeometry y="80" width="60" height="60" as="geometry" />
        </mxCell>
        <mxCell id="luljxV-kUhQ4hvASBTv3-44" value="PostgreSQL DB" style="text;html=1;align=left;verticalAlign=middle;resizable=0;points=[];autosize=1;strokeColor=none;fillColor=none;fontSize=14;fontStyle=1" vertex="1" parent="luljxV-kUhQ4hvASBTv3-43">
          <mxGeometry width="120" height="30" as="geometry" />
        </mxCell>
        <mxCell id="luljxV-kUhQ4hvASBTv3-48" value="Saving customer credentials&lt;div&gt;and transactional data&lt;/div&gt;" style="text;html=1;align=left;verticalAlign=middle;resizable=0;points=[];autosize=1;strokeColor=none;fillColor=none;fontStyle=1" vertex="1" parent="luljxV-kUhQ4hvASBTv3-43">
          <mxGeometry y="25" width="170" height="40" as="geometry" />
        </mxCell>
        <mxCell id="luljxV-kUhQ4hvASBTv3-53" style="edgeStyle=orthogonalEdgeStyle;rounded=0;orthogonalLoop=1;jettySize=auto;html=1;entryX=0;entryY=0.5;entryDx=0;entryDy=0;startArrow=classic;startFill=1;fillColor=#60a917;strokeColor=#2D7600;strokeWidth=3;" edge="1" parent="1" source="luljxV-kUhQ4hvASBTv3-46" target="luljxV-kUhQ4hvASBTv3-49">
          <mxGeometry relative="1" as="geometry" />
        </mxCell>
        <mxCell id="luljxV-kUhQ4hvASBTv3-46" value="" style="rounded=0;whiteSpace=wrap;html=1;fillColor=#dae8fc;strokeColor=#6c8ebf;" vertex="1" parent="1">
          <mxGeometry x="600" y="670" width="240" height="120" as="geometry" />
        </mxCell>
        <mxCell id="luljxV-kUhQ4hvASBTv3-47" value="Restaurant Service&lt;div&gt;dev-restaurant-service&lt;/div&gt;" style="text;html=1;align=left;verticalAlign=middle;resizable=0;points=[];autosize=1;strokeColor=none;fillColor=none;fontSize=14;fontStyle=1" vertex="1" parent="1">
          <mxGeometry x="600" y="670" width="160" height="50" as="geometry" />
        </mxCell>
        <mxCell id="luljxV-kUhQ4hvASBTv3-49" value="" style="rounded=0;whiteSpace=wrap;html=1;fillColor=#dae8fc;strokeColor=#6c8ebf;" vertex="1" parent="1">
          <mxGeometry x="960" y="660" width="240" height="140" as="geometry" />
        </mxCell>
        <mxCell id="luljxV-kUhQ4hvASBTv3-50" value="NoSQL DB" style="text;html=1;align=left;verticalAlign=middle;resizable=0;points=[];autosize=1;strokeColor=none;fillColor=none;fontSize=14;fontStyle=1" vertex="1" parent="1">
          <mxGeometry x="960" y="660" width="90" height="30" as="geometry" />
        </mxCell>
        <mxCell id="luljxV-kUhQ4hvASBTv3-51" value="Storing restaurants information&lt;div&gt;and menus&lt;/div&gt;" style="text;html=1;align=left;verticalAlign=middle;resizable=0;points=[];autosize=1;strokeColor=none;fillColor=none;fontStyle=1" vertex="1" parent="1">
          <mxGeometry x="960" y="685" width="190" height="40" as="geometry" />
        </mxCell>
        <mxCell id="luljxV-kUhQ4hvASBTv3-57" style="edgeStyle=orthogonalEdgeStyle;rounded=0;orthogonalLoop=1;jettySize=auto;html=1;entryX=0.5;entryY=1;entryDx=0;entryDy=0;fillColor=#60a917;strokeColor=#2D7600;strokeWidth=3;" edge="1" parent="1" source="luljxV-kUhQ4hvASBTv3-54" target="luljxV-kUhQ4hvASBTv3-42">
          <mxGeometry relative="1" as="geometry">
            <Array as="points">
              <mxPoint x="-120" y="1100" />
            </Array>
          </mxGeometry>
        </mxCell>
        <mxCell id="luljxV-kUhQ4hvASBTv3-54" value="" style="rounded=0;whiteSpace=wrap;html=1;fillColor=#dae8fc;strokeColor=#6c8ebf;" vertex="1" parent="1">
          <mxGeometry y="1040" width="240" height="120" as="geometry" />
        </mxCell>
        <mxCell id="luljxV-kUhQ4hvASBTv3-55" value="Orders Service&lt;div&gt;dev-order-service&lt;/div&gt;" style="text;html=1;align=left;verticalAlign=middle;resizable=0;points=[];autosize=1;strokeColor=none;fillColor=none;fontSize=14;fontStyle=1" vertex="1" parent="1">
          <mxGeometry y="1040" width="130" height="50" as="geometry" />
        </mxCell>
        <mxCell id="luljxV-kUhQ4hvASBTv3-56" style="edgeStyle=orthogonalEdgeStyle;rounded=0;orthogonalLoop=1;jettySize=auto;html=1;entryX=0.915;entryY=0.04;entryDx=0;entryDy=0;entryPerimeter=0;fillColor=#d80073;strokeColor=#A50040;strokeWidth=3;" edge="1" parent="1" source="luljxV-kUhQ4hvASBTv3-32" target="luljxV-kUhQ4hvASBTv3-55">
          <mxGeometry relative="1" as="geometry">
            <Array as="points">
              <mxPoint x="480" y="920" />
              <mxPoint x="119" y="920" />
            </Array>
          </mxGeometry>
        </mxCell>
        <mxCell id="luljxV-kUhQ4hvASBTv3-58" value="&lt;font style=&quot;font-size: 14px;&quot;&gt;Storing order history&lt;/font&gt;&lt;div&gt;&lt;font style=&quot;font-size: 14px;&quot;&gt;into SQL database&lt;/font&gt;&lt;/div&gt;" style="text;html=1;align=center;verticalAlign=middle;resizable=0;points=[];autosize=1;strokeColor=#82b366;fillColor=#d5e8d4;" vertex="1" parent="1">
          <mxGeometry x="-120" y="920" width="150" height="50" as="geometry" />
        </mxCell>
        <mxCell id="luljxV-kUhQ4hvASBTv3-59" value="" style="rounded=0;whiteSpace=wrap;html=1;fillColor=#dae8fc;strokeColor=#6c8ebf;" vertex="1" parent="1">
          <mxGeometry x="360" y="1040" width="240" height="120" as="geometry" />
        </mxCell>
        <mxCell id="luljxV-kUhQ4hvASBTv3-60" value="Payment Service&lt;div&gt;dev-payment-service&lt;/div&gt;" style="text;html=1;align=left;verticalAlign=middle;resizable=0;points=[];autosize=1;strokeColor=none;fillColor=none;fontSize=14;fontStyle=1" vertex="1" parent="1">
          <mxGeometry x="360" y="1040" width="150" height="50" as="geometry" />
        </mxCell>
        <mxCell id="luljxV-kUhQ4hvASBTv3-62" value="" style="rounded=0;whiteSpace=wrap;html=1;fillColor=#dae8fc;strokeColor=#6c8ebf;" vertex="1" parent="1">
          <mxGeometry x="720" y="1040" width="240" height="120" as="geometry" />
        </mxCell>
        <mxCell id="luljxV-kUhQ4hvASBTv3-63" value="Notifications Service&lt;div&gt;dev-notification-service&lt;/div&gt;" style="text;html=1;align=left;verticalAlign=middle;resizable=0;points=[];autosize=1;strokeColor=none;fillColor=none;fontSize=14;fontStyle=1" vertex="1" parent="1">
          <mxGeometry x="720" y="1040" width="170" height="50" as="geometry" />
        </mxCell>
        <mxCell id="luljxV-kUhQ4hvASBTv3-64" style="edgeStyle=orthogonalEdgeStyle;rounded=0;orthogonalLoop=1;jettySize=auto;html=1;entryX=0.54;entryY=-0.02;entryDx=0;entryDy=0;entryPerimeter=0;fillColor=#d80073;strokeColor=#A50040;strokeWidth=3;" edge="1" parent="1" source="luljxV-kUhQ4hvASBTv3-32" target="luljxV-kUhQ4hvASBTv3-63">
          <mxGeometry relative="1" as="geometry">
            <Array as="points">
              <mxPoint x="480" y="920" />
              <mxPoint x="812" y="920" />
            </Array>
          </mxGeometry>
        </mxCell>
        <mxCell id="luljxV-kUhQ4hvASBTv3-65" value="MQ Broker&amp;nbsp;" style="ellipse;whiteSpace=wrap;html=1;aspect=fixed;fontSize=14;fontStyle=1" vertex="1" parent="1">
          <mxGeometry x="420" y="1300" width="120" height="120" as="geometry" />
        </mxCell>
        <mxCell id="luljxV-kUhQ4hvASBTv3-67" value="&lt;span style=&quot;font-size: 14px;&quot;&gt;Subscribe&lt;/span&gt;" style="text;html=1;align=center;verticalAlign=middle;resizable=0;points=[];autosize=1;strokeColor=#82b366;fillColor=#d5e8d4;" vertex="1" parent="1">
          <mxGeometry x="795" y="1160" width="90" height="30" as="geometry" />
        </mxCell>
        <mxCell id="luljxV-kUhQ4hvASBTv3-69" style="edgeStyle=orthogonalEdgeStyle;rounded=0;orthogonalLoop=1;jettySize=auto;html=1;strokeWidth=3;fillColor=#f0a30a;strokeColor=#BD7000;" edge="1" parent="1" source="luljxV-kUhQ4hvASBTv3-68" target="luljxV-kUhQ4hvASBTv3-65">
          <mxGeometry relative="1" as="geometry" />
        </mxCell>
        <mxCell id="luljxV-kUhQ4hvASBTv3-68" value="&lt;span style=&quot;font-size: 14px;&quot;&gt;Publish&lt;/span&gt;" style="text;html=1;align=center;verticalAlign=middle;resizable=0;points=[];autosize=1;strokeColor=#82b366;fillColor=#d5e8d4;" vertex="1" parent="1">
          <mxGeometry x="445" y="1160" width="70" height="30" as="geometry" />
        </mxCell>
        <mxCell id="luljxV-kUhQ4hvASBTv3-71" style="edgeStyle=orthogonalEdgeStyle;rounded=0;orthogonalLoop=1;jettySize=auto;html=1;entryX=0;entryY=0.5;entryDx=0;entryDy=0;endSize=8;fillColor=#f0a30a;strokeColor=#BD7000;strokeWidth=3;" edge="1" parent="1" source="luljxV-kUhQ4hvASBTv3-70" target="luljxV-kUhQ4hvASBTv3-65">
          <mxGeometry relative="1" as="geometry">
            <Array as="points">
              <mxPoint x="120" y="1360" />
            </Array>
          </mxGeometry>
        </mxCell>
        <mxCell id="luljxV-kUhQ4hvASBTv3-70" value="&lt;span style=&quot;font-size: 14px;&quot;&gt;Publish&lt;/span&gt;" style="text;html=1;align=center;verticalAlign=middle;resizable=0;points=[];autosize=1;strokeColor=#82b366;fillColor=#d5e8d4;" vertex="1" parent="1">
          <mxGeometry x="85" y="1160" width="70" height="30" as="geometry" />
        </mxCell>
        <mxCell id="luljxV-kUhQ4hvASBTv3-72" style="edgeStyle=orthogonalEdgeStyle;rounded=0;orthogonalLoop=1;jettySize=auto;html=1;entryX=0.489;entryY=1;entryDx=0;entryDy=0;entryPerimeter=0;fillColor=#f0a30a;strokeColor=#BD7000;strokeWidth=3;" edge="1" parent="1" source="luljxV-kUhQ4hvASBTv3-65" target="luljxV-kUhQ4hvASBTv3-67">
          <mxGeometry relative="1" as="geometry" />
        </mxCell>
        <mxCell id="luljxV-kUhQ4hvASBTv3-74" style="edgeStyle=orthogonalEdgeStyle;rounded=0;orthogonalLoop=1;jettySize=auto;html=1;exitX=0.5;exitY=1;exitDx=0;exitDy=0;entryX=0.307;entryY=0;entryDx=0;entryDy=0;entryPerimeter=0;fillColor=#0050ef;strokeColor=#3333FF;strokeWidth=3;" edge="1" parent="1" source="luljxV-kUhQ4hvASBTv3-38" target="luljxV-kUhQ4hvASBTv3-60">
          <mxGeometry relative="1" as="geometry">
            <Array as="points">
              <mxPoint x="240" y="880" />
              <mxPoint x="406" y="880" />
              <mxPoint x="410" y="910" />
            </Array>
          </mxGeometry>
        </mxCell>
        <mxCell id="luljxV-kUhQ4hvASBTv3-75" style="edgeStyle=orthogonalEdgeStyle;rounded=0;orthogonalLoop=1;jettySize=auto;html=1;exitX=0.5;exitY=1;exitDx=0;exitDy=0;entryX=0.229;entryY=-0.04;entryDx=0;entryDy=0;entryPerimeter=0;strokeColor=#0000FF;strokeWidth=3;" edge="1" parent="1" source="luljxV-kUhQ4hvASBTv3-38" target="luljxV-kUhQ4hvASBTv3-63">
          <mxGeometry relative="1" as="geometry">
            <Array as="points">
              <mxPoint x="240" y="880" />
              <mxPoint x="759" y="880" />
            </Array>
          </mxGeometry>
        </mxCell>
        <mxCell id="luljxV-kUhQ4hvASBTv3-76" style="edgeStyle=orthogonalEdgeStyle;rounded=0;orthogonalLoop=1;jettySize=auto;html=1;exitX=0.25;exitY=1;exitDx=0;exitDy=0;entryX=0.871;entryY=-0.025;entryDx=0;entryDy=0;entryPerimeter=0;fillColor=#0050ef;strokeColor=#3333FF;strokeWidth=3;" edge="1" parent="1" source="luljxV-kUhQ4hvASBTv3-46" target="luljxV-kUhQ4hvASBTv3-54">
          <mxGeometry relative="1" as="geometry">
            <Array as="points">
              <mxPoint x="660" y="920" />
              <mxPoint x="209" y="920" />
            </Array>
          </mxGeometry>
        </mxCell>
        <mxCell id="luljxV-kUhQ4hvASBTv3-79" value="" style="group" vertex="1" connectable="0" parent="1">
          <mxGeometry x="-240" y="380" width="278.7843902439024" height="190" as="geometry" />
        </mxCell>
        <mxCell id="luljxV-kUhQ4hvASBTv3-88" value="" style="group" vertex="1" connectable="0" parent="luljxV-kUhQ4hvASBTv3-79">
          <mxGeometry width="258.7843902439024" height="190" as="geometry" />
        </mxCell>
        <mxCell id="luljxV-kUhQ4hvASBTv3-77" value="" style="rounded=0;whiteSpace=wrap;html=1;" vertex="1" parent="luljxV-kUhQ4hvASBTv3-88">
          <mxGeometry width="253.65853658536585" height="190" as="geometry" />
        </mxCell>
        <mxCell id="luljxV-kUhQ4hvASBTv3-78" value="Legends" style="text;html=1;align=left;verticalAlign=middle;resizable=0;points=[];autosize=1;strokeColor=none;fillColor=none;fontStyle=1;fontSize=14;" vertex="1" parent="luljxV-kUhQ4hvASBTv3-88">
          <mxGeometry x="12.682926829268293" width="80" height="30" as="geometry" />
        </mxCell>
        <mxCell id="luljxV-kUhQ4hvASBTv3-80" style="edgeStyle=orthogonalEdgeStyle;rounded=0;orthogonalLoop=1;jettySize=auto;html=1;strokeWidth=3;fillColor=#f0a30a;strokeColor=#BD7000;jumpStyle=none;" edge="1" parent="luljxV-kUhQ4hvASBTv3-88">
          <mxGeometry relative="1" as="geometry">
            <mxPoint x="12.682926829268293" y="39.99857142857143" as="sourcePoint" />
            <mxPoint x="76.09756097560975" y="39.99857142857143" as="targetPoint" />
            <Array as="points">
              <mxPoint x="12.682926829268293" y="39.99857142857143" />
              <mxPoint x="12.682926829268293" y="39.99857142857143" />
            </Array>
          </mxGeometry>
        </mxCell>
        <mxCell id="luljxV-kUhQ4hvASBTv3-81" style="edgeStyle=orthogonalEdgeStyle;rounded=0;orthogonalLoop=1;jettySize=auto;html=1;strokeWidth=3;fillColor=#0050ef;strokeColor=#3333FF;jumpStyle=none;" edge="1" parent="luljxV-kUhQ4hvASBTv3-88">
          <mxGeometry relative="1" as="geometry">
            <mxPoint x="12.682926829268293" y="69.99571428571429" as="sourcePoint" />
            <mxPoint x="76.09756097560975" y="69.99571428571429" as="targetPoint" />
            <Array as="points">
              <mxPoint x="12.682926829268293" y="69.99571428571429" />
              <mxPoint x="12.682926829268293" y="69.99571428571429" />
            </Array>
          </mxGeometry>
        </mxCell>
        <mxCell id="luljxV-kUhQ4hvASBTv3-82" style="edgeStyle=orthogonalEdgeStyle;rounded=0;orthogonalLoop=1;jettySize=auto;html=1;strokeWidth=3;fillColor=#d80073;strokeColor=#A50040;jumpStyle=none;" edge="1" parent="luljxV-kUhQ4hvASBTv3-88">
          <mxGeometry relative="1" as="geometry">
            <mxPoint x="12.682926829268293" y="100.00285714285715" as="sourcePoint" />
            <mxPoint x="76.09756097560975" y="100.00285714285715" as="targetPoint" />
            <Array as="points">
              <mxPoint x="12.682926829268293" y="100.00285714285715" />
              <mxPoint x="12.682926829268293" y="100.00285714285715" />
            </Array>
          </mxGeometry>
        </mxCell>
        <mxCell id="luljxV-kUhQ4hvASBTv3-83" style="edgeStyle=orthogonalEdgeStyle;rounded=0;orthogonalLoop=1;jettySize=auto;html=1;strokeWidth=3;fillColor=#60a917;strokeColor=#2D7600;jumpStyle=none;" edge="1" parent="luljxV-kUhQ4hvASBTv3-88">
          <mxGeometry relative="1" as="geometry">
            <mxPoint x="12.682926829268293" y="130" as="sourcePoint" />
            <mxPoint x="76.09756097560975" y="130" as="targetPoint" />
            <Array as="points">
              <mxPoint x="12.682926829268293" y="130" />
              <mxPoint x="12.682926829268293" y="130" />
            </Array>
          </mxGeometry>
        </mxCell>
        <mxCell id="luljxV-kUhQ4hvASBTv3-84" value="MQ Comm." style="text;html=1;align=left;verticalAlign=middle;resizable=0;points=[];autosize=1;strokeColor=none;fillColor=none;" vertex="1" parent="luljxV-kUhQ4hvASBTv3-88">
          <mxGeometry x="88.78048780487805" y="24" width="80" height="30" as="geometry" />
        </mxCell>
        <mxCell id="luljxV-kUhQ4hvASBTv3-86" value="API GW REST API Comm." style="text;html=1;align=left;verticalAlign=middle;resizable=0;points=[];autosize=1;strokeColor=none;fillColor=none;" vertex="1" parent="luljxV-kUhQ4hvASBTv3-88">
          <mxGeometry x="88.78439024390241" y="84" width="170" height="30" as="geometry" />
        </mxCell>
        <mxCell id="luljxV-kUhQ4hvASBTv3-87" value="DB Comm." style="text;html=1;align=left;verticalAlign=middle;resizable=0;points=[];autosize=1;strokeColor=none;fillColor=none;" vertex="1" parent="luljxV-kUhQ4hvASBTv3-88">
          <mxGeometry x="88.78439024390241" y="114" width="80" height="30" as="geometry" />
        </mxCell>
        <mxCell id="luljxV-kUhQ4hvASBTv3-85" value="Inter service REST API Comm." style="text;html=1;align=left;verticalAlign=middle;resizable=0;points=[];autosize=1;strokeColor=none;fillColor=none;" vertex="1" parent="luljxV-kUhQ4hvASBTv3-79">
          <mxGeometry x="88.78439024390244" y="54" width="190" height="30" as="geometry" />
        </mxCell>
      </root>
    </mxGraphModel>
  </diagram>
</mxfile>
